<svg width="20" height="20" viewBox="0 0 20 20" fill="none" xmlns="http://www.w3.org/2000/svg">
<path fill-rule="evenodd" clip-rule="evenodd" d="M16.2528 0.477751C18.3134 -0.38083 20.3806 1.68639 19.522 3.74698L13.5985 17.9634C12.4401 20.7437 8.36526 20.2738 7.8701 17.3028L7.13109 12.8687L2.69701 12.1297C-0.273982 11.6345 -0.74392 7.55972 2.03636 6.40127L16.2528 0.477751ZM17.6759 2.97775C17.8476 2.56563 17.4341 2.15219 17.022 2.3239L2.80559 8.24742C1.87883 8.63357 2.03548 9.99184 3.0258 10.1569L7.45989 10.8959C8.30283 11.0364 8.96338 11.697 9.10387 12.5399L9.84289 16.974C10.0079 17.9643 11.3662 18.121 11.7524 17.1942L17.6759 2.97775Z" fill="#979C9E"/>
</svg>
