<svg width="16" height="16" viewBox="0 0 16 16" fill="none" xmlns="http://www.w3.org/2000/svg">
<path d="M8.00014 0.500265C9.51254 0.500292 10.9896 0.957559 12.2375 1.81206C13.4853 2.66655 14.4457 3.87836 14.9926 5.28843C15.5394 6.6985 15.6472 8.24096 15.3017 9.71338C14.9563 11.1858 14.1737 12.5194 13.0568 13.5391C11.9399 14.5588 10.5408 15.217 9.04308 15.4274C7.54538 15.6377 6.01907 15.3903 4.66448 14.7177C3.30988 14.0451 2.19028 12.9787 1.45262 11.6584C0.714948 10.3381 0.393679 8.82559 0.530972 7.31943C0.540821 7.21043 0.572042 7.10444 0.622853 7.00751C0.673664 6.91058 0.743069 6.82461 0.827106 6.7545C0.911143 6.68439 1.00817 6.63152 1.11264 6.59891C1.2171 6.5663 1.32697 6.55458 1.43597 6.56443C1.54497 6.57428 1.65096 6.6055 1.74789 6.65631C1.84482 6.70712 1.9308 6.77653 2.0009 6.86057C2.07101 6.9446 2.12388 7.04163 2.15649 7.1461C2.18911 7.25056 2.20082 7.36043 2.19097 7.46943C2.11084 8.32167 2.22029 9.18108 2.51147 9.98602C2.80264 10.791 3.26833 11.5215 3.87514 12.1253C4.18764 12.4378 4.53514 12.7144 4.91014 12.9486C5.8389 13.5284 6.91209 13.8351 8.00697 13.8337C9.10185 13.8322 10.1742 13.5227 11.1014 12.9404C12.0287 12.3581 12.7733 11.5267 13.2502 10.5411C13.7271 9.55552 13.9169 8.45563 13.7981 7.36722C13.6793 6.2788 13.2565 5.2458 12.5782 4.38636C11.8999 3.52691 10.9934 2.87572 9.96235 2.50726C8.93133 2.13879 7.81742 2.06793 6.74802 2.30278C5.67862 2.53763 4.6969 3.0687 3.91514 3.83526L5.0818 3.8361C5.29542 3.83464 5.50144 3.91527 5.65731 4.06134C5.81319 4.2074 5.90702 4.40776 5.91943 4.62102C5.93183 4.83427 5.86187 5.04415 5.72398 5.20731C5.58609 5.37047 5.39081 5.47444 5.17847 5.49776L5.0818 5.50276H1.7468C1.54269 5.50274 1.34569 5.4278 1.19316 5.29217C1.04063 5.15654 0.943186 4.96964 0.919305 4.76693L0.913472 4.66943V1.3361C0.912012 1.12248 0.992642 0.916466 1.13871 0.76059C1.28478 0.604714 1.48513 0.510884 1.69839 0.498478C1.91165 0.486072 2.12153 0.556036 2.28469 0.693923C2.44784 0.83181 2.55182 1.02709 2.57514 1.23943L2.58014 1.33693V2.81526C3.27991 2.08273 4.12109 1.49984 5.05272 1.10192C5.98436 0.703997 6.98708 0.499313 8.00014 0.500265ZM7.37514 3.8336C7.52617 3.8336 7.67209 3.8883 7.78591 3.98757C7.89974 4.08684 7.97376 4.22397 7.9943 4.3736L8.00014 4.4586V8.00027H9.87514C10.0335 8.00031 10.1859 8.06047 10.3016 8.16858C10.4173 8.27668 10.4877 8.42468 10.4985 8.58267C10.5093 8.74065 10.4597 8.89684 10.3598 9.01968C10.2598 9.14252 10.117 9.22285 9.96014 9.24443L9.87514 9.25027H7.37514C7.22411 9.25026 7.07819 9.19556 6.96436 9.09629C6.85054 8.99702 6.77651 8.85989 6.75597 8.71027L6.75014 8.62527V4.4586C6.75014 4.29284 6.81599 4.13387 6.9332 4.01666C7.05041 3.89945 7.20938 3.8336 7.37514 3.8336Z" fill="#72777A"/>
</svg>
