<svg width="13" height="13" viewBox="0 0 13 13" fill="none" xmlns="http://www.w3.org/2000/svg">
<path fill-rule="evenodd" clip-rule="evenodd" d="M1.71108 1.3729C2.46413 0.619858 3.70955 0.708369 4.34852 1.56034L5.40918 2.97455C5.93171 3.67126 5.86243 4.64618 5.24662 5.26199L4.46462 6.04398C4.54041 6.24124 4.78989 6.67412 5.54962 7.43386C6.30935 8.19359 6.74224 8.44307 6.9395 8.51885L7.72149 7.73686C8.3373 7.12105 9.31222 7.05176 10.0089 7.5743L11.4231 8.63496C12.2751 9.27393 12.3636 10.5194 11.6106 11.2724C11.3658 11.5172 11.3243 11.5586 10.9158 11.9672C10.4994 12.3836 9.61524 12.7728 8.72011 12.8117C7.31934 12.8726 5.41664 12.2506 3.07475 9.90873C0.732854 7.56684 0.110868 5.66414 0.171771 4.26337C0.20565 3.48415 0.453387 2.62832 1.01953 2.07097C1.42483 1.65915 1.47754 1.60644 1.71108 1.3729ZM1.33734 4.31404C1.29512 5.28503 1.70433 6.8884 3.89971 9.08377C6.09508 11.2791 7.69845 11.6884 8.66944 11.6461C9.57585 11.6067 10.0621 11.1688 10.0908 11.1423L10.7856 10.4474C11.0366 10.1964 11.0071 9.78128 10.7231 9.56829L9.30893 8.50763C9.07669 8.33345 8.75172 8.35655 8.54645 8.56182C8.23717 8.87109 8.02606 9.08534 7.6128 9.49703C6.75435 10.3522 5.28489 8.81904 4.72466 8.25882C4.20983 7.74398 2.64086 6.22786 3.48561 5.37309C3.48728 5.37141 3.71481 5.14388 4.42166 4.43703C4.62693 4.23176 4.65002 3.90679 4.47585 3.67455L3.41519 2.26034C3.2022 1.97635 2.78706 1.94685 2.53604 2.19786C2.30501 2.42889 2.04355 2.69035 1.84193 2.89337C1.42696 3.3112 1.35954 3.80328 1.33734 4.31404Z" fill="#23262F"/>
</svg>
