<svg width="20" height="20" viewBox="0 0 20 20" fill="none" xmlns="http://www.w3.org/2000/svg">
<path fill-rule="evenodd" clip-rule="evenodd" d="M10 10.8337C6.77834 10.8337 4.16667 13.4453 4.16667 16.667V18.3337C4.16667 18.7939 3.79357 19.167 3.33333 19.167C2.8731 19.167 2.5 18.7939 2.5 18.3337V16.667C2.5 12.5249 5.85786 9.16699 10 9.16699C14.1421 9.16699 17.5 12.5249 17.5 16.667V18.3337C17.5 18.7939 17.1269 19.167 16.6667 19.167C16.2064 19.167 15.8333 18.7939 15.8333 18.3337V16.667C15.8333 13.4453 13.2217 10.8337 10 10.8337Z" fill="#23262F"/>
<path fill-rule="evenodd" clip-rule="evenodd" d="M10 9.16634C11.8409 9.16634 13.3333 7.67396 13.3333 5.83301C13.3333 3.99206 11.8409 2.49967 10 2.49967C8.15905 2.49967 6.66667 3.99206 6.66667 5.83301C6.66667 7.67396 8.15905 9.16634 10 9.16634ZM10 10.833C12.7614 10.833 15 8.59443 15 5.83301C15 3.07158 12.7614 0.833008 10 0.833008C7.23858 0.833008 5 3.07158 5 5.83301C5 8.59443 7.23858 10.833 10 10.833Z" fill="#23262F"/>
</svg>
