<svg width="32" height="32" viewBox="0 0 32 32" fill="none" xmlns="http://www.w3.org/2000/svg">
<rect width="32" height="32" rx="8" fill="#23262F"/>
<path fill-rule="evenodd" clip-rule="evenodd" d="M17.937 18.8806C17.0339 19.5826 15.8991 20.0007 14.6666 20.0007C11.7211 20.0007 9.33325 17.6128 9.33325 14.6673C9.33325 11.7218 11.7211 9.33398 14.6666 9.33398C17.6121 9.33398 19.9999 11.7218 19.9999 14.6673C19.9999 15.8998 19.5819 17.0346 18.8798 17.9377L22.4713 21.5292C22.7317 21.7896 22.7317 22.2117 22.4713 22.4721C22.211 22.7324 21.7889 22.7324 21.5285 22.4721L17.937 18.8806ZM18.6666 14.6673C18.6666 16.8765 16.8757 18.6673 14.6666 18.6673C12.4574 18.6673 10.6666 16.8765 10.6666 14.6673C10.6666 12.4582 12.4574 10.6673 14.6666 10.6673C16.8757 10.6673 18.6666 12.4582 18.6666 14.6673Z" fill="#FCFCFD"/>
</svg>
